<svg
  xmlns="http://www.w3.org/2000/svg"
  viewBox="0 0 256 256"
  width="19"
  height="19"
  fill="currentColor"
>
  <g transform="translate(1.41 1.41) scale(2.81)">
    <path d="M84.657 90H5.343v-2c0-21.867 17.79-39.657 39.657-39.657S84.657 66.133 84.657 88v2zM9.398 86h71.203C79.562 67.265 63.99 52.343 45 52.343S10.439 67.265 9.398 86z" />
    <path d="M45 43.971c-12.123 0-21.985-9.863-21.985-21.986C23.015 9.863 32.877 0 45 0s21.985 9.863 21.985 21.985S57.123 43.971 45 43.971zM45 4c-9.917 0-17.985 8.068-17.985 17.985S35.083 39.971 45 39.971 62.985 31.903 62.985 21.985 54.917 4 45 4z" />
  </g>
</svg>
